# xmcd
#
# Track frame offsets: 
#        150
#        14136
#        30273
#        44540
#        74395
#        93147
#        108980
#        125800
#        137682
#        152199
#        169147
#
# Disc length: 2472 seconds
#
# Revision: 0
# Processed by: cddbd v1.5.2PL0 Copyright (c) Steve Scherf et al.
# Submitted via: ExactAudioCopyFreeDBPlugin 1.0
#
DISCID=9409a60b
DTITLE=Schwaggert - Schwaggert
DYEAR=1995
DGENRE=Country
TTITLE0=Take A Little For Yourself
TTITLE1=Don't Worry About Me
TTITLE2=You Ain't Nothing But Trouble
TTITLE3=Me And My Woman
TTITLE4=When Can I See You
TTITLE5=Too Cute To Handle
TTITLE6=Chevy Van
TTITLE7=Schwaggert's Lament
TTITLE8=I Didn't Think About That
TTITLE9=I Gotta Habit
TTITLE10=Painfully Clear
EXTD=
EXTT0=
EXTT1=
EXTT2=
EXTT3=
EXTT4=
EXTT5=
EXTT6=
EXTT7=
EXTT8=
EXTT9=
EXTT10=
PLAYORDER=
